HIERARCHY
ROOT Hips
{
	OFFSET 0.00000 0.00000 0.00000
	CHANNELS 6 Xposition Yposition Zposition Zrotation Yrotation Xrotation 
	JOINT LHipJoint
	{
		OFFSET 0 0 0
		CHANNELS 3 Zrotation Yrotation Xrotation
		JOINT LeftUpLeg
		{
			OFFSET 1.77779 -1.88989 0.48267
			CHANNELS 3 Zrotation Yrotation Xrotation
			JOINT LeftLeg
			{
				OFFSET 2.53442 -6.96327 0.00000
				CHANNELS 3 Zrotation Yrotation Xrotation
				JOINT LeftFoot
				{
					OFFSET 2.71068 -7.44755 0.00000
					CHANNELS 3 Zrotation Yrotation Xrotation
					JOINT LeftToeBase
					{
						OFFSET 0.17992 -0.49431 2.22524
						CHANNELS 3 Zrotation Yrotation Xrotation
						End Site
						{
							OFFSET 0.00000 -0.00000 1.14687
						}
					}
				}
			}
		}
	}
	JOINT RHipJoint
	{
		OFFSET 0 0 0
		CHANNELS 3 Zrotation Yrotation Xrotation
		JOINT RightUpLeg
		{
			OFFSET -1.58469 -1.88989 0.48267
			CHANNELS 3 Zrotation Yrotation Xrotation
			JOINT RightLeg
			{
				OFFSET -2.60386 -7.15404 0.00000
				CHANNELS 3 Zrotation Yrotation Xrotation
				JOINT RightFoot
				{
					OFFSET -2.73334 -7.50979 0.00000
					CHANNELS 3 Zrotation Yrotation Xrotation
					JOINT RightToeBase
					{
						OFFSET -0.25618 -0.70384 2.21822
						CHANNELS 3 Zrotation Yrotation Xrotation
						End Site
						{
							OFFSET -0.00000 -0.00000 1.16381
						}
					}
				}
			}
		}
	}
	JOINT LowerBack
	{
		OFFSET 0 0 0
		CHANNELS 3 Zrotation Yrotation Xrotation
		JOINT Spine
		{
			OFFSET 0.03410 2.01612 -0.22230
			CHANNELS 3 Zrotation Yrotation Xrotation
			JOINT Spine1
			{
				OFFSET 0.03465 2.03012 0.00937
				CHANNELS 3 Zrotation Yrotation Xrotation
				JOINT Neck
				{
					OFFSET 0 0 0
					CHANNELS 3 Zrotation Yrotation Xrotation
					JOINT Neck1
					{
						OFFSET -0.00219 1.70459 0.20857
						CHANNELS 3 Zrotation Yrotation Xrotation
						JOINT Head
						{
							OFFSET 0.02518 1.72339 -0.22179
							CHANNELS 3 Zrotation Yrotation Xrotation
							End Site
							{
								OFFSET 0.00282 1.74122 -0.09823
							}
						}
					}
				}
				JOINT LeftShoulder
				{
					OFFSET 0 0 0
					CHANNELS 3 Zrotation Yrotation Xrotation
					JOINT LeftArm
					{
						OFFSET 3.36358 1.00547 -0.37661
						CHANNELS 3 Zrotation Yrotation Xrotation
						JOINT LeftForeArm
						{
							OFFSET 5.06507 -0.00000 0.00000
							CHANNELS 3 Zrotation Yrotation Xrotation
							JOINT LeftHand
							{
								OFFSET 3.60196 -0.00000 0.00000
								CHANNELS 3 Zrotation Yrotation Xrotation
								JOINT LeftFingerBase
								{
									OFFSET 0 0 0
									CHANNELS 3 Zrotation Yrotation Xrotation
									JOINT LeftHandIndex1
									{
										OFFSET 0.45035 -0.00000 0.00000
										CHANNELS 3 Zrotation Yrotation Xrotation
										End Site
										{
											OFFSET 0.36308 -0.00000 0.00000
										}
									}
								}
								JOINT LThumb
								{
									OFFSET 0 0 0
									CHANNELS 3 Zrotation Yrotation Xrotation
									End Site
									{
										OFFSET 0.36862 -0.00000 0.36862
									}
								}
							}
						}
					}
				}
				JOINT RightShoulder
				{
					OFFSET 0 0 0
					CHANNELS 3 Zrotation Yrotation Xrotation
					JOINT RightArm
					{
						OFFSET -3.50159 0.80383 -0.71526
						CHANNELS 3 Zrotation Yrotation Xrotation
						JOINT RightForeArm
						{
							OFFSET -5.36394 -0.00000 0.00000
							CHANNELS 3 Zrotation Yrotation Xrotation
							JOINT RightHand
							{
								OFFSET -3.58035 -0.00000 0.00000
								CHANNELS 3 Zrotation Yrotation Xrotation
								JOINT RightFingerBase
								{
									OFFSET 0 0 0
									CHANNELS 3 Zrotation Yrotation Xrotation
									JOINT RightHandIndex1
									{
										OFFSET -0.66375 -0.00000 0.00000
										CHANNELS 3 Zrotation Yrotation Xrotation
										End Site
										{
											OFFSET -0.53513 -0.00000 0.00000
										}
									}
								}
								JOINT RThumb
								{
									OFFSET 0 0 0
									CHANNELS 3 Zrotation Yrotation Xrotation
									End Site
									{
										OFFSET -0.54330 -0.00000 0.54330
									}
								}
							}
						}
					}
				}
			}
		}
	}
}
MOTION
Frames: 13
Frame Time: .0083333
0.0558 17.5942 -32.0622 0 0 0 0 0 0 -21 0 0 0 0 0 0 0 0 0 0 0 0 0 0 21 0 0 0 0 0 0 0 0 0 0 0 0 0 0 0 0 0 0 0 0 0 0 -16 0 0 21 0 0 11 0 0 0 -8 0 0 0 0 0 0 0 0 0 0 0 0 0 0 0 0 0 0 0 0 8 0 0 0 0 0 0 0 0 0 0 0 0 0 0 0 0 0
0.0558 17.5942 -32.0622 -0.9712 -6.2026 5.4386 0.0000 0.0000 0.0000 -23.6347 -0.5420 -1.5615 16.7965 19.7522 80.5963 3.3034 -7.6529 37.5900 0.0123 0.7147 1.9641 0.0000 0.0000 0.0000 25.4810 16.5665 -31.7244 -4.7623 -13.1110 39.7853 -0.2166 -0.0555 -8.8112 -0.2609 -3.2861 9.0762 -0.8103 -0.9136 17.3240 2.6108 -1.1078 -0.5971 3.6044 -0.3997 -10.3447 -2.8967 -1.9389 -17.7282 2.0904 -2.2066 10.0534 0.9106 -1.0150 5.9829 0.0000 -0.0000 0.0000 -83.4971 9.6571 47.2644 123.4358 -55.3226 -88.5015 -0.0000 0.0000 -29.8170 21.9172 3.5970 1.4460 -7.1250 0.0000 -0.0000 -3.8575 33.8376 1.0581 0.0000 -0.0000 0.0000 83.0606 -27.4027 41.6959 -106.2805 58.9744 -74.0507 0.0000 -0.0000 -18.6580 -30.6217 39.2389 -20.5267 7.1250 -0.0000 -0.0000 2.3377 13.4913 2.8206
0.0421 17.4901 -31.5974 -1.4269 -6.1218 5.2865 0.0000 0.0000 0.0000 -21.9911 -0.7090 -3.9073 18.2940 19.9301 85.0063 3.3535 -6.5301 37.2924 0.0085 -0.5942 -1.6328 0.0000 0.0000 0.0000 26.1037 17.9910 -30.8993 -5.4144 -13.8358 42.5834 -0.3336 -1.8040 -11.7214 -0.2877 -3.4495 9.5328 -0.6360 -0.9210 17.8223 2.8313 -1.0529 -0.6599 3.7536 -0.3683 -10.7027 -2.7908 -1.6126 -17.8606 1.9928 -1.7758 10.0532 0.9059 -0.8092 5.9915 0.0000 -0.0000 0.0000 -84.2717 10.4198 46.3085 120.0940 -56.2848 -85.7371 -0.0000 0.0000 -30.0114 22.0537 3.3881 1.3715 -7.1250 0.0000 -0.0000 -3.7318 33.6175 1.0434 0.0000 -0.0000 0.0000 82.8937 -25.6102 42.9207 -105.5043 59.0719 -73.3853 0.0000 -0.0000 -19.9356 -29.3148 39.0187 -19.4692 7.1250 -0.0000 -0.0000 2.9458 12.8727 3.5322
0.0226 17.4321 -31.1274 -2.3109 -5.9832 5.2254 0.0000 0.0000 0.0000 -19.6188 -0.8087 -6.3393 19.6546 19.9971 88.9901 3.3831 -6.0972 37.2386 0.0001 -0.0736 -0.2022 0.0000 0.0000 0.0000 27.4250 18.8819 -29.4848 -5.8523 -14.2837 44.3860 -0.4536 -3.1511 -14.2684 -0.2316 -3.0975 8.5504 0.2360 -0.9364 17.9690 2.9036 -0.8845 -0.3990 3.2861 -0.3395 -10.5184 -3.0413 -1.9413 -18.0911 2.4894 -2.2289 10.4966 1.0568 -0.9959 6.1912 -0.0000 0.0000 0.0000 -84.5176 10.6207 45.4938 116.4949 -57.1738 -82.7276 -0.0000 0.0000 -29.9480 22.9090 3.1301 1.3219 -7.1250 0.0000 -0.0000 -3.0186 33.3665 0.8618 -0.0000 0.0000 0.0000 83.4962 -22.9594 43.7668 -104.5153 59.1887 -72.5364 0.0000 -0.0000 -21.0302 -28.2017 38.7342 -18.5479 7.1250 -0.0000 -0.0000 3.4457 12.2606 4.1054
0.0098 17.3460 -30.6742 -3.4456 -5.6577 5.2803 0.0000 0.0000 0.0000 -16.9148 -1.0751 -9.1061 21.0083 19.9756 92.9492 3.2241 -6.6866 36.7135 0.0051 0.4605 1.2654 0.0000 0.0000 0.0000 29.0380 19.5149 -28.2135 -6.2644 -14.6798 46.0339 -0.6114 -4.0827 -16.8194 -0.1609 -2.5841 7.1228 1.7826 -1.0571 17.6107 2.7710 -0.7621 0.1293 2.1987 -0.3737 -9.7578 -2.8872 -2.1005 -19.0758 3.1391 -2.5626 10.9075 1.1999 -1.0850 6.5016 0.0000 0.0000 0.0000 -84.3278 10.3754 44.6691 112.9070 -57.9214 -79.6996 -0.0000 0.0000 -30.0565 23.1329 3.3864 1.4456 -7.1250 0.0000 -0.0000 -2.8503 33.6514 0.7940 0.0000 0.0000 0.0000 84.6349 -19.8345 44.4099 -103.8790 59.2595 -71.9897 0.0000 -0.0000 -21.7716 -28.0208 38.5959 -18.3653 7.1250 -0.0000 -0.0000 3.5061 12.0694 4.1687
-0.0000 17.2757 -30.2182 -4.4186 -4.8979 5.3772 0.0000 0.0000 0.0000 -14.3672 -1.8528 -12.0050 22.2354 19.8798 96.5484 3.0645 -7.1984 36.1469 0.0181 0.8687 2.3877 0.0000 0.0000 0.0000 30.5132 19.5295 -26.9082 -6.5516 -14.9424 47.1574 -0.7755 -5.1076 -19.2574 -0.1460 -2.4624 6.7854 2.3717 -1.0709 18.0909 3.3810 -0.5766 0.1363 2.4974 -0.2958 -10.0280 -3.2140 -2.3133 -20.3617 3.0747 -2.7331 11.6992 1.2041 -1.1730 6.9778 0.0000 -0.0000 0.0000 -85.3804 10.7349 44.0155 109.3524 -58.5365 -76.6773 -0.0000 0.0000 -30.0095 23.1784 3.4576 1.4792 -7.1250 0.0000 -0.0000 -2.8171 33.7303 0.7794 0.0000 -0.0000 0.0000 84.4004 -17.4029 45.0093 -104.0630 59.2394 -72.1478 0.0000 -0.0000 -22.5251 -27.8038 38.1871 -18.0565 7.1250 -0.0000 -0.0000 3.5236 11.5948 4.1670
-0.0107 17.2211 -29.7579 -4.8707 -4.1905 5.5211 0.0000 0.0000 0.0000 -12.5172 -2.7472 -15.3111 23.3191 19.7338 99.7459 3.0269 -7.0606 35.8815 0.0811 1.8372 5.0560 0.0000 0.0000 0.0000 31.4542 19.3243 -25.6021 -6.7836 -15.1469 48.0511 -0.9104 -6.0851 -21.2189 -0.0890 -1.9240 5.2958 2.8423 -1.1226 18.1589 3.5098 -0.5363 0.2961 2.3572 -0.2961 -9.8944 -2.9643 -2.4734 -21.2971 2.8999 -2.9661 11.8362 1.0721 -1.2805 7.1760 0.0000 -0.0000 0.0000 -85.8125 10.9461 43.3143 106.1739 -58.9881 -73.9594 -0.0000 0.0000 -29.3273 23.5945 3.9276 1.7136 -7.1250 0.0000 -0.0000 -2.5028 34.2562 0.6603 0.0000 -0.0000 0.0000 84.7979 -14.4375 45.6049 -104.0788 59.2376 -72.1614 0.0000 -0.0000 -23.1280 -27.3494 37.6491 -17.5333 7.1250 -0.0000 -0.0000 3.6381 10.9232 4.2694
-0.0241 17.1826 -29.3032 -4.8415 -3.9670 5.5764 0.0000 0.0000 0.0000 -11.3665 -3.1964 -18.7472 24.2142 19.5688 102.4071 3.0060 -6.3365 35.4126 0.2263 3.0621 8.4518 0.0000 0.0000 0.0000 31.9039 19.0992 -24.1120 -6.9547 -15.2936 48.7027 -1.0290 -6.7752 -22.7505 -0.0129 -0.7335 2.0159 2.5301 -1.0602 18.5159 3.6225 -0.4804 0.1077 2.6612 -0.2496 -10.3029 -3.0544 -2.4855 -20.9837 2.7789 -2.9425 11.7368 1.0519 -1.2883 7.0907 0.0000 0.0000 0.0000 -86.5208 12.1507 42.3192 103.7984 -59.2682 -71.9204 -0.0000 0.0000 -28.2039 23.6978 4.4442 1.9480 -7.1250 0.0000 -0.0000 -2.4479 34.8231 0.6121 0.0000 0.0000 0.0000 84.8512 -12.3044 46.5173 -104.8327 59.1522 -72.8089 0.0000 -0.0000 -23.8000 -27.4907 37.7524 -17.6714 7.1250 -0.0000 -0.0000 3.5876 11.0672 4.2171
-0.0313 17.1401 -28.8596 -4.6734 -3.4400 5.7112 0.0000 0.0000 0.0000 -10.4424 -3.9142 -22.0290 24.9724 19.3966 104.6803 2.7404 -6.2927 33.9572 0.3276 3.6784 10.1737 0.0000 0.0000 0.0000 32.1273 18.4932 -22.8582 -7.0641 -15.3856 49.1163 -1.1816 -7.2414 -24.3375 -0.0030 -0.3558 0.9776 2.1794 -1.1525 18.7482 3.7635 -0.6352 -0.2521 3.0807 -0.2961 -10.8279 -3.3586 -2.4363 -20.0876 2.7130 -2.8062 11.6461 1.1019 -1.2514 6.9140 0.0000 -0.0000 0.0000 -87.3052 13.7931 41.2168 102.4277 -59.4083 -70.7413 -0.0000 0.0000 -27.1106 23.7180 4.1466 1.8196 -7.1250 0.0000 -0.0000 -2.4136 34.4996 0.6225 0.0000 -0.0000 0.0000 84.7669 -10.8745 47.2955 -106.8233 58.9031 -74.5157 0.0000 -0.0000 -24.4431 -27.0849 38.2735 -17.5764 7.1250 -0.0000 -0.0000 3.9144 11.4815 4.6249
-0.0258 17.1045 -28.3990 -4.6002 -3.1275 5.9435 0.0000 0.0000 0.0000 -9.5325 -4.2818 -24.9011 25.5430 19.2468 106.4046 2.2888 -6.8574 31.6654 0.3877 3.9982 11.0715 0.0000 0.0000 0.0000 32.4469 17.7803 -21.4203 -7.0684 -15.3892 49.1324 -1.3483 -7.4924 -25.8002 -0.0000 0.0090 -0.0247 2.2553 -1.1000 18.3342 3.6653 -0.5809 -0.2172 2.8982 -0.2797 -10.5569 -3.1972 -2.5217 -20.1381 2.6326 -2.9514 11.6710 1.0322 -1.3206 6.9311 0.0000 -0.0000 0.0000 -87.3868 14.8623 40.6553 102.3798 -59.4129 -70.7001 -0.0000 0.0000 -26.3830 23.0912 4.1572 1.7703 -7.1250 0.0000 -0.0000 -2.9310 34.4862 0.7572 0.0000 -0.0000 0.0000 85.3284 -9.1020 47.3913 -109.4694 58.5181 -76.7771 0.0000 -0.0000 -24.8303 -25.2816 37.6249 -16.0843 7.1250 -0.0000 -0.0000 4.7115 10.3448 5.4978
-0.0235 17.1106 -27.9314 -4.6991 -2.8002 6.1054 0.0000 0.0000 0.0000 -8.4891 -4.6057 -27.8048 25.9147 19.1397 107.5351 1.8770 -7.3851 29.4112 0.1821 2.7485 7.5793 0.0000 0.0000 0.0000 32.9639 16.8578 -19.5628 -6.9337 -15.2758 48.6232 -1.5402 -7.3093 -27.0812 -0.0008 -0.1835 0.5041 2.3428 -1.1033 18.0040 3.7802 -0.5690 -0.2491 2.9622 -0.2759 -10.4058 -3.3723 -2.6292 -19.6887 2.5583 -3.0455 11.3781 1.0292 -1.3850 6.7662 -0.0000 0.0000 0.0000 -87.8078 16.2534 40.0241 103.4883 -59.3013 -71.6538 -0.0000 0.0000 -25.6438 22.5887 4.7279 1.9640 -7.1250 0.0000 -0.0000 -3.3854 35.0825 0.8258 -0.0000 0.0000 0.0000 85.6167 -7.6308 47.7565 -112.7828 57.9449 -79.5943 0.0000 -0.0000 -24.8411 -23.9038 36.3814 -14.7296 7.1250 -0.0000 -0.0000 5.1920 8.7431 5.9436
-0.0272 17.1560 -27.4584 -4.8617 -2.3086 6.2163 0.0000 0.0000 0.0000 -7.4982 -5.0706 -30.7102 26.0846 19.0882 108.0540 1.5596 -7.6851 27.4613 0.0162 0.8206 2.2554 0.0000 0.0000 0.0000 33.5747 15.6377 -17.4490 -6.6675 -15.0454 47.6054 -1.6781 -7.1259 -27.9278 -0.0031 -0.3608 0.9912 2.2488 -1.2388 17.9894 4.1299 -0.7118 -0.6768 3.4581 -0.3225 -10.8682 -3.9138 -2.6146 -17.9776 2.5610 -2.9391 10.7649 1.1448 -1.3712 6.2931 0.0000 -0.0000 0.0000 -88.6520 18.4794 39.2372 105.1463 -59.1152 -73.0781 -0.0000 0.0000 -25.1444 21.8634 5.4214 2.1711 -7.1250 0.0000 -0.0000 -4.0438 35.7942 0.9168 0.0000 -0.0000 0.0000 85.4900 -7.2296 48.9097 -116.2393 57.2315 -82.5127 0.0000 -0.0000 -26.0340 -25.5443 37.2262 -16.1260 7.1250 -0.0000 -0.0000 4.4916 10.0107 5.2187
-0.0109 17.2044 -26.9315 -5.0930 -2.9931 6.5024 0.0000 0.0000 0.0000 -6.9053 -4.1491 -33.0581 26.0078 19.1117 107.8193 1.1070 -8.1358 24.3783 0.0228 -0.9757 -2.6821 0.0000 0.0000 0.0000 34.1220 15.0735 -14.8107 -6.2986 -14.7116 46.1687 -1.6878 -7.0914 -27.9731 -0.0026 0.3269 -0.8983 2.4316 -0.8179 17.1712 4.1586 -0.1484 -0.8023 3.2129 -0.0679 -10.5642 -4.0051 -2.7457 -17.3215 2.5981 -3.1216 10.5099 1.1586 -1.4651 6.1121 0.0000 -0.0000 0.0000 -88.6801 20.1020 39.1741 107.0858 -58.8677 -74.7405 -0.0000 0.0000 -25.5153 20.5746 6.3841 2.3901 -7.1250 0.0000 -0.0000 -5.2169 36.7514 1.0620 0.0000 -0.0000 0.0000 85.8379 -6.7399 49.1029 -119.6741 56.3962 -85.3876 0.0000 -0.0000 -27.1299 -25.7099 38.9653 -16.8452 7.1250 -0.0000 -0.0000 4.7751 11.8046 5.6686
